<svg xmlns="http://www.w3.org/2000/svg" viewBox="-0.5 -0.5 24 24" id="Interface-Essential-Floppy-Disk--Streamline-Pixel" height="24" width="24">
    <desc>Interface Essential Floppy Disk Streamline Icon: https://streamlinehq.com</desc>
    <title>interface-essential-floppy-disk</title>
    <g>
        <path d="M21.9003125 2.1921874999999997H23v19.7153125h-1.0996875Z" fill="#000000" stroke-width="1"></path>
        <g>
            <path d="M20.8078125 1.0925h1.0925v1.0996875h-1.0925Z" fill="#000000" stroke-width="1"></path>
            <path d="m19.7153125 12.04625 -1.0996875 0 0 9.86125 -14.2384375 0 0 -9.86125 -1.0925 0 0 9.86125 -2.1921874999999997 0 0 1.0925 20.8078125 0 0 -1.0925 -2.185 0 0 -9.86125z" fill="#000000" stroke-width="1"></path>
            <path d="M13.138750000000002 6.569375000000001h4.3843749999999995V2.1921874999999997h-4.3843749999999995Zm1.0996875 -3.2846875000000004h1.0925v2.1921874999999997h-1.0925Z" fill="#000000" stroke-width="1"></path>
            <path d="M6.569375000000001 18.615624999999998h9.854062500000001v1.0996875H6.569375000000001Z" fill="#000000" stroke-width="1"></path>
            <path d="M6.569375000000001 15.3309375h9.854062500000001v1.0996875H6.569375000000001Z" fill="#000000" stroke-width="1"></path>
            <path d="M4.3771875 10.95375H18.615624999999998v1.0925H4.3771875Z" fill="#000000" stroke-width="1"></path>
            <path d="M3.2846875000000004 6.569375000000001h1.0925V1.0925h2.1921874999999997v5.476875H4.3771875v1.0996875h2.1921874999999997v1.0925h13.145937499999999V1.0925h1.0925V0H2.1921874999999997v1.0925h1.0925Zm4.3771875 -5.476875H18.615624999999998v6.5765625000000005H7.661875Z" fill="#000000" stroke-width="1"></path>
            <path d="M1.0925 1.0925h1.0996875v1.0996875H1.0925Z" fill="#000000" stroke-width="1"></path>
            <path d="M0 2.1921874999999997h1.0925v19.7153125H0Z" fill="#000000" stroke-width="1"></path>
        </g>
    </g>
</svg>