<svg xmlns="http://www.w3.org/2000/svg" viewBox="-0.5 -0.5 24 24" id="Interface-Essential-Share-1--Streamline-Pixel" height="24" width="24">
    <desc>Interface Essential Share 1 Streamline Icon: https://streamlinehq.com</desc>
    <title>interface-essential-share-1</title>
    <g>
        <path d="m14.78109375 6.569375000000001 1.0996875 0 0 1.0996875 3.2846875000000004 0 0 -1.0996875 1.0925 0 0 -1.0925 -1.0925 0 0 -2.1921874999999997 -1.0996875 0 0 -1.0925 1.0996875 0 0 1.0925 1.0925 0 0 2.1921874999999997 1.0996875 0 0 -3.2846875000000004 -1.0996875 0 0 -1.0996875 -1.0925 0 0 -1.0925 -3.2846875000000004 0 0 1.0925 -1.0996875 0 0 1.0996875 -1.0925 0 0 3.2846875000000004 1.0925 0 0 1.0925z" fill="#000000" stroke-width="1"></path>
        <path d="m13.68859375 20.8078125 1.0925 0 0 1.0996875 1.0996875 0 0 1.0925 3.2846875000000004 0 0 -1.0925 1.0925 0 0 -1.0996875 -1.0925 0 0 -2.1921874999999997 -1.0996875 0 0 -1.0925 1.0996875 0 0 1.0925 1.0925 0 0 2.1921874999999997 1.0996875 0 0 -3.2846875000000004 -1.0996875 0 0 -1.0925 -1.0925 0 0 -1.0996875 -3.2846875000000004 0 0 1.0996875 -1.0996875 0 0 1.0925 -1.0925 0 0 3.2846875000000004z" fill="#000000" stroke-width="1"></path>
        <path d="M12.59609375 16.430625h1.0925v1.0925h-1.0925Z" fill="#000000" stroke-width="1"></path>
        <path d="M12.59609375 5.476875h1.0925v1.0925h-1.0925Z" fill="#000000" stroke-width="1"></path>
        <path d="M11.49640625 15.3309375h1.0996875v1.0996875h-1.0996875Z" fill="#000000" stroke-width="1"></path>
        <path d="M11.49640625 6.569375000000001h1.0996875v1.0996875h-1.0996875Z" fill="#000000" stroke-width="1"></path>
        <path d="M10.40390625 14.2384375h1.0925v1.0925h-1.0925Z" fill="#000000" stroke-width="1"></path>
        <path d="M10.40390625 7.6690625h1.0925v1.0925h-1.0925Z" fill="#000000" stroke-width="1"></path>
        <path d="M9.30421875 13.145937499999999h1.0996875v1.0925h-1.0996875Z" fill="#000000" stroke-width="1"></path>
        <path d="M9.30421875 8.7615625h1.0996875v1.0925h-1.0996875Z" fill="#000000" stroke-width="1"></path>
        <path d="m3.83453125 7.6690625 0 1.0925 -1.0996875 0 0 1.0925 -1.0925 0 0 3.291875 1.0925 0 0 1.0925 1.0996875 0 0 1.0925 3.2846875000000004 0 0 -1.0925 1.0925 0 0 -1.0925 1.0925 0 0 -3.291875 -1.0925 0 0 -1.0925 -1.0925 0 0 -1.0925 -3.2846875000000004 0z" fill="#000000" stroke-width="1"></path>
    </g>
</svg>